<svg xmlns="http://www.w3.org/2000/svg" viewBox="0 0 300 190" fill="none"><rect width="300" height="190" fill="#ffd55b"/><circle cx="150" cy="93" r="77" fill="#fff8e9" opacity=".17"/><path d="M17 163h28M255 27h28" stroke="#202b36" stroke-width="2" opacity=".3"/><g transform="translate(40 26) rotate(-3)"><rect x="5" y="6" width="150" height="120" rx="6" fill="#202b36" stroke="#202b36" stroke-width="3"/><rect x="0" y="0" width="150" height="120" rx="6" fill="#fff8e9" stroke="#202b36" stroke-width="3"/><path d="M26 84q20-50 44-14t40-30" fill="none" stroke="#356bf0" stroke-width="5" stroke-linecap="round" stroke-linejoin="round"/><circle cx="104" cy="46" r="12" fill="#f26b50" stroke="#202b36" stroke-width="3"/><path d="M30 100h80" fill="none" stroke="#aad7bd" stroke-width="5" stroke-linecap="round" stroke-linejoin="round"/></g><path d="M196 70q28-20 64 0q-4 30-32 30t-32-30Z" fill="#202b36"/><circle cx="214" cy="80" r="6" fill="#fff8e9" stroke="#202b36" stroke-width="3"/><circle cx="242" cy="80" r="6" fill="#fff8e9" stroke="#202b36" stroke-width="3"/><g transform="translate(222 112) rotate(-20)"><rect x="0" y="0" width="16" height="60" rx="2" fill="#f26b50" stroke="#202b36" stroke-width="3"/></g></svg>