<svg xmlns="http://www.w3.org/2000/svg" viewBox="0 0 300 190" fill="none"><rect width="300" height="190" fill="#ffd55b"/><circle cx="150" cy="93" r="77" fill="#fff8e9" opacity=".17"/><path d="M17 163h28M255 27h28" stroke="#202b36" stroke-width="2" opacity=".3"/><g transform="translate(72 64) rotate(-14)"><rect x="-29" y="-25" width="64" height="64" rx="13" fill="#202b36" stroke="#202b36" stroke-width="3"/><rect x="-32" y="-32" width="64" height="64" rx="13" fill="#fff8e9" stroke="#202b36" stroke-width="3"/><circle cx="0" cy="0" r="5" fill="#202b36"/></g><g transform="translate(140 52) rotate(8)"><rect x="-29" y="-25" width="64" height="64" rx="13" fill="#202b36" stroke="#202b36" stroke-width="3"/><rect x="-32" y="-32" width="64" height="64" rx="13" fill="#fff8e9" stroke="#202b36" stroke-width="3"/><circle cx="-17" cy="-17" r="5" fill="#202b36"/><circle cx="17" cy="-17" r="5" fill="#202b36"/><circle cx="0" cy="0" r="5" fill="#202b36"/><circle cx="-17" cy="17" r="5" fill="#202b36"/><circle cx="17" cy="17" r="5" fill="#202b36"/></g><g transform="translate(214 70) rotate(-6)"><rect x="-29" y="-25" width="64" height="64" rx="13" fill="#202b36" stroke="#202b36" stroke-width="3"/><rect x="-32" y="-32" width="64" height="64" rx="13" fill="#fff8e9" stroke="#202b36" stroke-width="3"/><circle cx="0" cy="0" r="5" fill="#202b36"/></g><g transform="translate(98 132) rotate(12)"><rect x="-29" y="-25" width="64" height="64" rx="13" fill="#202b36" stroke="#202b36" stroke-width="3"/><rect x="-32" y="-32" width="64" height="64" rx="13" fill="#fff8e9" stroke="#202b36" stroke-width="3"/><circle cx="-17" cy="-17" r="5" fill="#202b36"/><circle cx="0" cy="0" r="5" fill="#202b36"/><circle cx="17" cy="17" r="5" fill="#202b36"/></g><g transform="translate(176 128) rotate(-18)"><rect x="-29" y="-25" width="64" height="64" rx="13" fill="#202b36" stroke="#202b36" stroke-width="3"/><rect x="-32" y="-32" width="64" height="64" rx="13" fill="#f26b50" stroke="#202b36" stroke-width="3"/><circle cx="-17" cy="-17" r="5" fill="#202b36"/><circle cx="17" cy="-17" r="5" fill="#202b36"/><circle cx="0" cy="0" r="5" fill="#202b36"/><circle cx="-17" cy="17" r="5" fill="#202b36"/><circle cx="17" cy="17" r="5" fill="#202b36"/></g><path d="M238 140h20 M248 130v20 M241 133l14 14 M241 147l14-14" fill="none" stroke="#202b36" stroke-width="2" stroke-linecap="round" stroke-linejoin="round"/></svg>